<?xml version="1.0" encoding="utf-8"?>
<!-- Generator: Adobe Illustrator 17.0.0, SVG Export Plug-In . SVG Version: 6.00 Build 0)  -->
<!DOCTYPE svg PUBLIC "-//W3C//DTD SVG 1.1//EN" "http://www.w3.org/Graphics/SVG/1.1/DTD/svg11.dtd">
<svg version="1.1" id="Layer_1" xmlns="http://www.w3.org/2000/svg" xmlns:xlink="http://www.w3.org/1999/xlink" x="0px" y="0px"
	 width="50px" height="50px" viewBox="0 0 50 50" enable-background="new 0 0 50 50" xml:space="preserve">
<g>
	<path d="M27.287,17.822c-0.575-0.272-1.393-0.394-2.423-0.394h-2.907v6.906h3.574c2.09,0,3.453-1.242,3.453-3.544
		C28.983,19.367,28.468,18.307,27.287,17.822z"/>
	<path d="M25,0C11.193,0,0,11.193,0,25s11.193,25,25,25s25-11.193,25-25S38.807,0,25,0z M34.586,35.752h-2.514
		c-1.757,0-2.332-0.363-2.998-1.605l-3.059-5.542c-0.454-0.818-0.848-1.091-2.09-1.091h-1.968v5.27h2.484v2.968h-9.026v-2.968h2.574
		V17.247h-2.574v-2.998h9.48c1.575,0,2.877,0.091,4.089,0.454c2.423,0.818,3.967,2.726,3.967,5.755c0,3.028-1.545,5.118-4.058,5.966
		v0.061l0.363,0.273c0.212,0.212,0.485,0.454,0.697,0.848l2.483,4.483c0.334,0.575,0.727,0.696,1.454,0.696h0.697V35.752z"/>
</g>
</svg>
